<svg width="50.000000" height="50.000000" viewBox="0 0 50 50" fill="none" xmlns="http://www.w3.org/2000/svg" xmlns:xlink="http://www.w3.org/1999/xlink">
	<desc>
			Created with Pixso.
	</desc>
	<defs>
		<clipPath id="clip20_1942">
			<rect width="50.000000" height="50.000000" fill="white" fill-opacity="0"/>
		</clipPath>
	</defs>
	<rect width="50.000000" height="50.000000" fill="#FFFFFF" fill-opacity="0"/>
	<g clip-path="url(#clip20_1942)">
		<path d="M13.54 20.83C13.07 20.83 12.63 20.9 12.18 20.96C12.33 20.48 12.47 19.99 12.71 19.55C12.95 18.91 13.32 18.35 13.69 17.79C14 17.18 14.54 16.77 14.94 16.25C15.36 15.75 15.93 15.41 16.38 14.99C16.83 14.56 17.41 14.34 17.87 14.03C18.35 13.75 18.77 13.45 19.22 13.3L20.35 12.84L21.33 12.43L20.32 8.39L19.08 8.69C18.68 8.79 18.2 8.91 17.65 9.05C17.08 9.15 16.48 9.44 15.81 9.7C15.15 9.99 14.38 10.19 13.67 10.67C12.95 11.12 12.12 11.5 11.39 12.11C10.69 12.74 9.83 13.28 9.21 14.08C8.52 14.82 7.84 15.61 7.31 16.5C6.7 17.35 6.29 18.28 5.85 19.21C5.45 20.13 5.13 21.07 4.87 21.99C4.38 23.83 4.16 25.57 4.07 27.07C4 28.56 4.05 29.81 4.13 30.71C4.16 31.13 4.22 31.54 4.26 31.83L4.32 32.18L4.37 32.17C4.74 33.9 5.59 35.49 6.83 36.75C8.07 38.02 9.64 38.91 11.36 39.32C13.08 39.73 14.88 39.65 16.56 39.08C18.23 38.51 19.71 37.47 20.83 36.1C21.94 34.72 22.64 33.06 22.85 31.3C23.06 29.54 22.76 27.76 22 26.16C21.23 24.57 20.04 23.22 18.54 22.27C17.04 21.33 15.31 20.83 13.54 20.83ZM36.45 20.83C35.99 20.83 35.54 20.9 35.1 20.96C35.24 20.48 35.39 19.99 35.63 19.55C35.87 18.91 36.24 18.35 36.61 17.79C36.91 17.18 37.46 16.77 37.86 16.25C38.28 15.75 38.85 15.41 39.3 14.99C39.74 14.56 40.32 14.34 40.79 14.03C41.27 13.75 41.69 13.45 42.14 13.3L43.26 12.84L44.25 12.43L43.24 8.39L42 8.69C41.6 8.79 41.11 8.91 40.56 9.05C40 9.15 39.4 9.44 38.72 9.7C38.06 9.99 37.3 10.19 36.58 10.67C35.87 11.12 35.04 11.5 34.31 12.11C33.6 12.74 32.75 13.28 32.12 14.08C31.43 14.82 30.76 15.61 30.23 16.5C29.62 17.35 29.2 18.28 28.77 19.21C28.37 20.13 28.05 21.07 27.79 21.99C27.3 23.83 27.08 25.57 26.99 27.07C26.92 28.56 26.96 29.81 27.05 30.71C27.08 31.13 27.14 31.54 27.18 31.83L27.23 32.18L27.29 32.17C27.66 33.9 28.51 35.49 29.75 36.75C30.98 38.02 32.55 38.91 34.28 39.32C36 39.73 37.8 39.65 39.48 39.08C41.15 38.51 42.63 37.47 43.74 36.1C44.86 34.72 45.56 33.06 45.76 31.3C45.97 29.54 45.68 27.76 44.91 26.16C44.15 24.57 42.95 23.22 41.45 22.27C39.96 21.33 38.22 20.83 36.45 20.83Z" fill="#7572D5" fill-opacity="1.000000" fill-rule="nonzero"/>
	</g>
</svg>
