<svg width="50.000000" height="50.000000" viewBox="0 0 50 50" fill="none" xmlns="http://www.w3.org/2000/svg" xmlns:xlink="http://www.w3.org/1999/xlink">
	<desc>
			Created with Pixso.
	</desc>
	<defs>
		<clipPath id="clip20_1854">
			<rect width="50.000000" height="50.000000" fill="white" fill-opacity="0"/>
		</clipPath>
	</defs>
	<rect width="50.000000" height="50.000000" fill="#FFFFFF" fill-opacity="0"/>
	<g clip-path="url(#clip20_1854)">
		<path d="M47.81 25C47.81 22.08 44.68 19.37 39.47 17.5L38.54 17.18L38.54 16.77C39.68 11.04 38.85 6.77 36.25 5.2C33.64 3.64 29.79 5.1 25.62 8.75L25 9.37L24.79 9.16L24.58 9.16C20.31 5.2 16.14 3.85 13.54 5.31C10.93 6.77 10.2 10.83 11.25 16.14C11.35 16.48 11.42 16.83 11.45 17.18L10.31 17.6C5.2 19.37 2.18 22.08 2.18 25C2.18 27.91 5.52 30.83 10.72 32.7L11.45 32.91C11.32 33.28 11.25 33.67 11.25 34.06C10.2 39.27 11.14 43.22 13.54 44.68C15.93 46.14 20.31 44.79 24.47 41.14L25.1 40.62L25.93 41.45C28.85 43.95 31.77 45.31 34.06 45.31C34.87 45.33 35.66 45.11 36.35 44.68C38.95 43.22 39.89 38.95 38.75 33.54L38.75 33.33C38.7 33.16 38.67 32.98 38.64 32.81L38.95 32.81C44.47 30.83 47.81 28.02 47.81 25ZM44.79 25C44.79 26.25 42.5 28.43 38.02 29.89L37.81 29.89C37.26 28.22 36.6 26.58 35.83 25C36.56 23.33 37.18 21.66 37.7 20.1L38.54 20.31C42.7 21.77 44.79 23.75 44.79 25ZM27.91 39.16L27.08 38.54C28.27 37.22 29.38 35.82 30.41 34.37L35.72 33.54C35.83 33.75 35.83 33.95 35.93 34.06C36.3 35.94 36.37 37.88 36.14 39.79C35.99 40.7 35.56 41.54 34.89 42.18C33.85 42.81 31.04 41.97 27.91 39.16ZM26.56 34.58L25.1 36.45L23.43 34.58L26.56 34.58ZM12.29 20C12.81 21.71 13.47 23.38 14.27 25C13.47 26.64 12.81 28.35 12.29 30.1L11.66 29.89C9.84 29.32 8.14 28.4 6.66 27.18C6.28 26.94 5.95 26.62 5.7 26.24C5.45 25.87 5.28 25.44 5.2 25C5.2 23.75 7.29 21.77 11.25 20.41L12.29 20ZM23.43 15.41L25 13.64L26.56 15.41L23.43 15.41ZM34.89 7.81C36.04 8.43 36.66 11.56 35.72 16.14C35.73 16.2 35.72 16.25 35.7 16.31C35.69 16.36 35.66 16.41 35.62 16.45L30.41 15.62C29.38 14.17 28.27 12.77 27.08 11.45L27.7 10.93C31.04 8.02 33.75 7.18 34.89 7.81ZM17.5 18.85L16.66 20.2L15.93 21.56C15.62 20.83 15.41 20.1 15.1 19.27L17.5 18.85ZM15.1 30.72C15.41 30 15.62 29.27 15.93 28.43L16.66 29.79L17.5 31.14L15.1 30.72ZM32.5 25C31.96 26.14 31.37 27.25 30.72 28.33C30.1 29.47 29.37 30.52 28.75 31.56L21.25 31.56C20.52 30.41 19.79 29.37 19.27 28.33C18.61 27.25 18.02 26.14 17.5 25C18 23.84 18.59 22.73 19.27 21.66C19.86 20.58 20.53 19.54 21.25 18.54C23.74 18.33 26.25 18.33 28.75 18.54C29.47 19.58 30.1 20.62 30.72 21.66C31.4 22.73 31.99 23.84 32.5 25ZM33.33 20.2L32.5 18.85L34.89 19.37C34.66 20.12 34.38 20.85 34.06 21.56L33.33 20.2ZM32.5 31.14L33.33 29.79L34.06 28.33L35 30.72L32.5 31.14ZM22.81 11.35L22.91 11.35L19.58 15.52L14.37 16.35C14.27 16.04 14.27 15.83 14.16 15.52C13.33 11.25 13.95 8.33 15 7.81C15.27 7.63 15.61 7.55 15.93 7.6C17.39 7.6 19.89 8.64 22.7 11.14L22.81 11.35ZM14.16 34.58C14.18 34.26 14.25 33.94 14.37 33.64L19.68 34.37C20.68 35.84 21.8 37.24 23.02 38.54L22.81 38.75L22.6 38.95C21.18 40.27 19.52 41.29 17.7 41.97C17.31 42.18 16.87 42.31 16.42 42.34C15.98 42.38 15.52 42.32 15.1 42.18C13.95 41.56 13.33 38.75 14.16 34.58Z" fill="#7572D5" fill-opacity="1.000000" fill-rule="nonzero"/>
		<path d="M25 20.41C24.08 20.39 23.19 20.64 22.42 21.13C21.65 21.62 21.05 22.33 20.69 23.17C20.32 24 20.22 24.93 20.38 25.82C20.55 26.72 20.98 27.55 21.61 28.2C22.25 28.85 23.07 29.3 23.96 29.48C24.85 29.67 25.78 29.58 26.62 29.24C27.46 28.89 28.19 28.31 28.69 27.55C29.2 26.8 29.47 25.91 29.47 25C29.47 23.8 29.01 22.65 28.17 21.79C27.33 20.93 26.19 20.44 25 20.41Z" fill="#7572D5" fill-opacity="1.000000" fill-rule="nonzero"/>
	</g>
</svg>
