<svg width="35.000000" height="35.000000" viewBox="0 0 35 35" fill="none" xmlns="http://www.w3.org/2000/svg" xmlns:xlink="http://www.w3.org/1999/xlink">
	<desc>
			Created with Pixso.
	</desc>
	<defs>
		<clipPath id="clip20_2002">
			<rect id="instagram-svg" width="21.000000" height="21.000000" transform="translate(7.000000 7.000000)" fill="white" fill-opacity="0"/>
		</clipPath>
	</defs>
	<rect id="Rectangle 7" rx="17.500000" width="35.000000" height="35.000000" fill="#FFFFFF" fill-opacity="0.100000"/>
	<rect id="instagram-svg" width="21.000000" height="21.000000" transform="translate(7.000000 7.000000)" fill="#FFFFFF" fill-opacity="0"/>
	<g clip-path="url(#clip20_2002)">
		<path id="Vector" d="M22.65 9.1L12.34 9.1C10.55 9.1 9.09 10.55 9.09 12.34L9.09 15.77L9.09 22.65C9.09 24.44 10.55 25.9 12.34 25.9L22.65 25.9C24.44 25.9 25.9 24.44 25.9 22.65L25.9 15.77L25.9 12.34C25.89 10.55 24.43 9.1 22.65 9.1ZM23.58 11.03L23.95 11.03L23.95 11.4L23.95 13.88L21.11 13.88L21.1 11.04L23.58 11.03ZM15.09 15.77C15.63 15.03 16.5 14.53 17.49 14.53C18.47 14.53 19.35 15.02 19.88 15.77C20.24 16.25 20.44 16.85 20.44 17.49C20.44 19.12 19.12 20.45 17.48 20.45C15.85 20.45 14.54 19.12 14.54 17.49C14.54 16.85 14.75 16.25 15.09 15.77ZM24.25 22.64C24.25 23.53 23.53 24.25 22.65 24.25L12.34 24.25C11.46 24.25 10.74 23.53 10.74 22.64L10.74 15.77L13.24 15.77C13.03 16.3 12.9 16.88 12.9 17.49C12.9 20.02 14.96 22.08 17.5 22.08C20.03 22.08 22.09 20.02 22.09 17.49C22.09 16.88 21.96 16.3 21.75 15.77L24.25 15.77L24.25 22.64Z" fill="#7572D5" fill-opacity="1.000000" fill-rule="nonzero"/>
	</g>
</svg>
