<svg width="35.000000" height="35.000000" viewBox="0 0 35 35" fill="none" xmlns="http://www.w3.org/2000/svg" xmlns:xlink="http://www.w3.org/1999/xlink">
	<desc>
			Created with Pixso.
	</desc>
	<defs>
		<clipPath id="clip20_1994">
			<rect id="vk-logo-svg" width="20.999998" height="20.999998" transform="translate(7.000061 7.000488)" fill="white" fill-opacity="0"/>
		</clipPath>
	</defs>
	<rect id="Rectangle 7" rx="17.500000" width="35.000000" height="35.000000" fill="#FFFFFF" fill-opacity="0.100000"/>
	<rect id="vk-logo-svg" width="20.999998" height="20.999998" transform="translate(7.000061 7.000488)" fill="#FFFFFF" fill-opacity="0"/>
	<g clip-path="url(#clip20_1994)">
		<path id="Vector" d="M25.16 20.99C24.8 20.53 24.38 20.13 23.98 19.73C23.84 19.59 23.69 19.45 23.55 19.3C23.14 18.89 23.12 18.73 23.45 18.26C23.67 17.94 23.91 17.61 24.14 17.3C24.35 17.01 24.56 16.72 24.77 16.42L24.81 16.36C25.21 15.8 25.61 15.21 25.83 14.51C25.89 14.32 25.95 14.04 25.81 13.82C25.68 13.59 25.41 13.52 25.23 13.48C25.14 13.47 25.05 13.47 24.96 13.47L22.38 13.46L22.35 13.46C21.96 13.46 21.7 13.65 21.55 14.05C21.41 14.42 21.25 14.82 21.07 15.2C20.71 15.96 20.25 16.83 19.59 17.56L19.56 17.59C19.48 17.67 19.4 17.77 19.33 17.77C19.32 17.77 19.31 17.77 19.3 17.77C19.16 17.71 19.07 17.37 19.07 17.21C19.07 17.21 19.07 17.2 19.07 17.2L19.07 14.11C19.07 14.1 19.07 14.08 19.07 14.07C19 13.57 18.86 13.26 18.31 13.15C18.29 13.14 18.28 13.14 18.26 13.14L15.58 13.14C15.14 13.14 14.9 13.33 14.67 13.6C14.61 13.68 14.48 13.83 14.54 14.02C14.61 14.2 14.82 14.24 14.88 14.26C15.22 14.32 15.41 14.54 15.46 14.91C15.56 15.56 15.57 16.25 15.5 17.08C15.48 17.31 15.44 17.49 15.38 17.65C15.37 17.68 15.31 17.8 15.26 17.8C15.24 17.8 15.2 17.79 15.11 17.73C14.9 17.58 14.75 17.37 14.57 17.11C13.96 16.22 13.46 15.25 13.02 14.12C12.85 13.71 12.55 13.48 12.16 13.47C11.73 13.47 11.34 13.46 10.97 13.46C10.56 13.46 10.19 13.47 9.82 13.48C9.51 13.48 9.29 13.58 9.18 13.77C9.06 13.95 9.07 14.2 9.2 14.5C10.23 16.88 11.17 18.61 12.24 20.11C12.99 21.16 13.74 21.89 14.6 22.4C15.51 22.94 16.53 23.2 17.72 23.2C17.85 23.2 17.99 23.2 18.13 23.19C18.82 23.16 19.08 22.9 19.11 22.2C19.13 21.85 19.16 21.47 19.33 21.16C19.44 20.96 19.54 20.96 19.57 20.96C19.63 20.96 19.71 20.99 19.8 21.04C19.95 21.14 20.08 21.28 20.18 21.4C20.28 21.51 20.38 21.63 20.48 21.74C20.69 21.99 20.91 22.24 21.14 22.48C21.64 23.01 22.19 23.24 22.83 23.19L25.2 23.19C25.2 23.19 25.21 23.19 25.21 23.19C25.45 23.18 25.65 23.04 25.77 22.82C25.92 22.55 25.92 22.2 25.77 21.89C25.59 21.54 25.36 21.24 25.16 20.99Z" fill="#7572D5" fill-opacity="1.000000" fill-rule="nonzero"/>
	</g>
</svg>
