<svg width="35.000000" height="35.000000" viewBox="0 0 35 35" fill="none" xmlns="http://www.w3.org/2000/svg" xmlns:xlink="http://www.w3.org/1999/xlink">
	<desc>
			Created with Pixso.
	</desc>
	<defs>
		<clipPath id="clip20_1998">
			<rect id="telegram-svg" width="21.000000" height="21.000000" transform="translate(7.000000 7.000000)" fill="white" fill-opacity="0"/>
		</clipPath>
	</defs>
	<rect id="Rectangle 7" rx="17.500000" width="35.000000" height="35.000000" fill="#7572D5" fill-opacity="1.000000"/>
	<rect id="telegram-svg" width="21.000000" height="21.000000" transform="translate(7.000000 7.000000)" fill="#FFFFFF" fill-opacity="0"/>
	<g clip-path="url(#clip20_1998)">
		<path id="Vector" d="M25.9 11.76L23.37 23.72C23.17 24.56 22.68 24.77 21.97 24.37L18.1 21.53L16.24 23.32C16.03 23.53 15.86 23.7 15.46 23.7L15.74 19.76L22.9 13.29C23.21 13.02 22.83 12.86 22.42 13.14L13.57 18.71L9.76 17.52C8.93 17.26 8.91 16.69 9.93 16.29L24.83 10.55C25.52 10.29 26.13 10.71 25.9 11.76Z" fill="#1F1F20" fill-opacity="1.000000" fill-rule="nonzero"/>
	</g>
</svg>
