<svg width="35.000000" height="35.000000" viewBox="0 0 35 35" fill="none" xmlns="http://www.w3.org/2000/svg" xmlns:xlink="http://www.w3.org/1999/xlink">
	<desc>
			Created with Pixso.
	</desc>
	<defs>
		<clipPath id="clip20_1987">
			<rect id="linkedin-svg" width="20.999998" height="20.999998" transform="translate(7.000000 7.000488)" fill="white" fill-opacity="0"/>
		</clipPath>
	</defs>
	<rect id="Rectangle 7" rx="17.500000" width="35.000000" height="35.000000" fill="#FFFFFF" fill-opacity="0.100000"/>
	<rect id="linkedin-svg" width="20.999998" height="20.999998" transform="translate(7.000000 7.000488)" fill="#FFFFFF" fill-opacity="0"/>
	<g clip-path="url(#clip20_1987)">
		<path id="Vector" d="M9.53 14.88L12.8 14.88L12.8 25.36L9.53 25.36L9.53 14.88Z" fill="#7572D5" fill-opacity="1.000000" fill-rule="evenodd"/>
		<path id="Vector" d="M11.1 9.94C9.89 9.94 9.09 10.72 9.09 11.75C9.09 12.77 9.86 13.57 11.05 13.57L11.08 13.57C12.31 13.57 13.08 12.76 13.07 11.75C13.04 10.72 12.3 9.94 11.1 9.94Z" fill="#7572D5" fill-opacity="1.000000" fill-rule="nonzero"/>
		<path id="Vector" d="M21.74 14.78C19.87 14.78 18.69 15.81 18.48 16.53L18.48 14.88L14.8 14.88C14.84 15.75 14.8 25.36 14.8 25.36L18.48 25.36L18.48 19.7C18.48 19.37 18.46 19.06 18.55 18.84C18.8 18.21 19.35 17.55 20.33 17.55C21.6 17.55 22.18 18.52 22.18 19.94L22.18 25.36L25.9 25.36L25.9 19.53C25.9 16.29 24.07 14.78 21.74 14.78Z" fill="#7572D5" fill-opacity="1.000000" fill-rule="nonzero"/>
	</g>
</svg>
