<svg width="50.000000" height="50.000000" viewBox="0 0 50 50" fill="none" xmlns="http://www.w3.org/2000/svg" >


	<g id="codeSvg">
		<path d="M18.31 42.06L27.26 6.68L31.43 7.87L22.48 43.31L18.31 42.06Z" fill="#7572D5" fill-opacity="1.000000" fill-rule="evenodd"/>
		<path d="M13.5 12.68L16.56 15.92L7.99 25L16.56 34.07L13.5 37.31L1.87 25L13.5 12.68Z" fill="#7572D5" fill-opacity="1.000000" fill-rule="evenodd"/>
		<path d="M36.49 12.68L33.43 15.92L42 25L33.43 34.07L36.49 37.31L48.12 25L36.49 12.68Z" fill="#7572D5" fill-opacity="1.000000" fill-rule="evenodd"/>
	</g>

	<g id="css">
		<desc>
			Created with Pixso.
		</desc>
		<defs>
			<clipPath id="clip20_1847">
				<rect width="50.000000" height="50.000000" fill="white" fill-opacity="0"/>
			</clipPath>
		</defs>
		<rect width="50.000000" height="50.000000" fill="#FFFFFF" fill-opacity="0"/>
		<g clip-path="url(#clip20_1847)">
			<path d="M38.05 10.84L12.94 10.83L13.35 15.75L32.63 15.75L32.15 20.85L19.5 20.85L19.96 25.67L31.73 25.67L31.03 32.28L25.49 33.78L19.86 32.27L19.5 28.31L14.53 28.31L15.08 35.54L25.49 38.73L35.73 35.86L38.04 10.84L38.05 10.84ZM5.49 2.56L45.49 2.56L41.86 42.99L25.45 47.56L9.13 42.99L5.49 2.56Z" fill="#7572D5" fill-opacity="1.000000" fill-rule="nonzero"/>
		</g>
	</g>

	<g id="figma">
		<desc>
			Created with Pixso.
		</desc>
		<defs>
			<clipPath id="clip20_1881">
				<rect width="50.000000" height="50.000000" fill="white" fill-opacity="0"/>
			</clipPath>
		</defs>
		<rect width="50.000000" height="50.000000" fill="#FFFFFF" fill-opacity="0"/>
		<g clip-path="url(#clip20_1881)">
			<path d="M17.7 4.16C14.25 4.16 11.45 6.96 11.45 10.41C11.45 13.86 14.25 16.66 17.7 16.66L32.29 16.66C35.74 16.66 38.54 13.86 38.54 10.41C38.54 6.96 35.74 4.16 32.29 4.16L17.7 4.16Z" fill="#7572D5" fill-opacity="1.000000" fill-rule="nonzero"/>
			<path d="M32.29 18.75C28.83 18.75 26.04 21.54 26.04 25C26.04 28.45 28.83 31.25 32.29 31.25C35.74 31.25 38.54 28.45 38.54 25C38.54 21.54 35.74 18.75 32.29 18.75Z" fill="#7572D5" fill-opacity="1.000000" fill-rule="nonzero"/>
			<path d="M11.45 25C11.45 21.54 14.25 18.75 17.7 18.75L23.95 18.75L23.95 31.25L17.7 31.25C14.25 31.25 11.45 28.45 11.45 25Z" fill="#7572D5" fill-opacity="1.000000" fill-rule="nonzero"/>
			<path d="M17.7 33.33C14.25 33.33 11.45 36.13 11.45 39.58C11.45 43.03 14.25 45.83 17.7 45.83C21.16 45.83 23.95 43.03 23.95 39.58L23.95 33.33L17.7 33.33Z" fill="#7572D5" fill-opacity="1.000000" fill-rule="nonzero"/>
		</g>
	</g>

	<g id="quote">
		<desc>
			Created with Pixso.
		</desc>
		<defs>
			<clipPath id="clip20_1881">
				<rect width="50.000000" height="50.000000" fill="white" fill-opacity="0"/>
			</clipPath>
		</defs>
		<rect width="50.000000" height="50.000000" fill="#FFFFFF" fill-opacity="0"/>
		<g clip-path="url(#clip20_1881)">
			<path d="M17.7 4.16C14.25 4.16 11.45 6.96 11.45 10.41C11.45 13.86 14.25 16.66 17.7 16.66L32.29 16.66C35.74 16.66 38.54 13.86 38.54 10.41C38.54 6.96 35.74 4.16 32.29 4.16L17.7 4.16Z" fill="#7572D5" fill-opacity="1.000000" fill-rule="nonzero"/>
			<path d="M32.29 18.75C28.83 18.75 26.04 21.54 26.04 25C26.04 28.45 28.83 31.25 32.29 31.25C35.74 31.25 38.54 28.45 38.54 25C38.54 21.54 35.74 18.75 32.29 18.75Z" fill="#7572D5" fill-opacity="1.000000" fill-rule="nonzero"/>
			<path d="M11.45 25C11.45 21.54 14.25 18.75 17.7 18.75L23.95 18.75L23.95 31.25L17.7 31.25C14.25 31.25 11.45 28.45 11.45 25Z" fill="#7572D5" fill-opacity="1.000000" fill-rule="nonzero"/>
			<path d="M17.7 33.33C14.25 33.33 11.45 36.13 11.45 39.58C11.45 43.03 14.25 45.83 17.7 45.83C21.16 45.83 23.95 43.03 23.95 39.58L23.95 33.33L17.7 33.33Z" fill="#7572D5" fill-opacity="1.000000" fill-rule="nonzero"/>
		</g>
	</g>

	<g id="react">
		<desc>
			Created with Pixso.
		</desc>
		<defs>
			<clipPath id="clip20_1854">
				<rect width="50.000000" height="50.000000" fill="white" fill-opacity="0"/>
			</clipPath>
		</defs>
		<rect width="50.000000" height="50.000000" fill="#FFFFFF" fill-opacity="0"/>
		<g clip-path="url(#clip20_1854)">
			<path d="M47.81 25C47.81 22.08 44.68 19.37 39.47 17.5L38.54 17.18L38.54 16.77C39.68 11.04 38.85 6.77 36.25 5.2C33.64 3.64 29.79 5.1 25.62 8.75L25 9.37L24.79 9.16L24.58 9.16C20.31 5.2 16.14 3.85 13.54 5.31C10.93 6.77 10.2 10.83 11.25 16.14C11.35 16.48 11.42 16.83 11.45 17.18L10.31 17.6C5.2 19.37 2.18 22.08 2.18 25C2.18 27.91 5.52 30.83 10.72 32.7L11.45 32.91C11.32 33.28 11.25 33.67 11.25 34.06C10.2 39.27 11.14 43.22 13.54 44.68C15.93 46.14 20.31 44.79 24.47 41.14L25.1 40.62L25.93 41.45C28.85 43.95 31.77 45.31 34.06 45.31C34.87 45.33 35.66 45.11 36.35 44.68C38.95 43.22 39.89 38.95 38.75 33.54L38.75 33.33C38.7 33.16 38.67 32.98 38.64 32.81L38.95 32.81C44.47 30.83 47.81 28.02 47.81 25ZM44.79 25C44.79 26.25 42.5 28.43 38.02 29.89L37.81 29.89C37.26 28.22 36.6 26.58 35.83 25C36.56 23.33 37.18 21.66 37.7 20.1L38.54 20.31C42.7 21.77 44.79 23.75 44.79 25ZM27.91 39.16L27.08 38.54C28.27 37.22 29.38 35.82 30.41 34.37L35.72 33.54C35.83 33.75 35.83 33.95 35.93 34.06C36.3 35.94 36.37 37.88 36.14 39.79C35.99 40.7 35.56 41.54 34.89 42.18C33.85 42.81 31.04 41.97 27.91 39.16ZM26.56 34.58L25.1 36.45L23.43 34.58L26.56 34.58ZM12.29 20C12.81 21.71 13.47 23.38 14.27 25C13.47 26.64 12.81 28.35 12.29 30.1L11.66 29.89C9.84 29.32 8.14 28.4 6.66 27.18C6.28 26.94 5.95 26.62 5.7 26.24C5.45 25.87 5.28 25.44 5.2 25C5.2 23.75 7.29 21.77 11.25 20.41L12.29 20ZM23.43 15.41L25 13.64L26.56 15.41L23.43 15.41ZM34.89 7.81C36.04 8.43 36.66 11.56 35.72 16.14C35.73 16.2 35.72 16.25 35.7 16.31C35.69 16.36 35.66 16.41 35.62 16.45L30.41 15.62C29.38 14.17 28.27 12.77 27.08 11.45L27.7 10.93C31.04 8.02 33.75 7.18 34.89 7.81ZM17.5 18.85L16.66 20.2L15.93 21.56C15.62 20.83 15.41 20.1 15.1 19.27L17.5 18.85ZM15.1 30.72C15.41 30 15.62 29.27 15.93 28.43L16.66 29.79L17.5 31.14L15.1 30.72ZM32.5 25C31.96 26.14 31.37 27.25 30.72 28.33C30.1 29.47 29.37 30.52 28.75 31.56L21.25 31.56C20.52 30.41 19.79 29.37 19.27 28.33C18.61 27.25 18.02 26.14 17.5 25C18 23.84 18.59 22.73 19.27 21.66C19.86 20.58 20.53 19.54 21.25 18.54C23.74 18.33 26.25 18.33 28.75 18.54C29.47 19.58 30.1 20.62 30.72 21.66C31.4 22.73 31.99 23.84 32.5 25ZM33.33 20.2L32.5 18.85L34.89 19.37C34.66 20.12 34.38 20.85 34.06 21.56L33.33 20.2ZM32.5 31.14L33.33 29.79L34.06 28.33L35 30.72L32.5 31.14ZM22.81 11.35L22.91 11.35L19.58 15.52L14.37 16.35C14.27 16.04 14.27 15.83 14.16 15.52C13.33 11.25 13.95 8.33 15 7.81C15.27 7.63 15.61 7.55 15.93 7.6C17.39 7.6 19.89 8.64 22.7 11.14L22.81 11.35ZM14.16 34.58C14.18 34.26 14.25 33.94 14.37 33.64L19.68 34.37C20.68 35.84 21.8 37.24 23.02 38.54L22.81 38.75L22.6 38.95C21.18 40.27 19.52 41.29 17.7 41.97C17.31 42.18 16.87 42.31 16.42 42.34C15.98 42.38 15.52 42.32 15.1 42.18C13.95 41.56 13.33 38.75 14.16 34.58Z" fill="#7572D5" fill-opacity="1.000000" fill-rule="nonzero"/>
			<path d="M25 20.41C24.08 20.39 23.19 20.64 22.42 21.13C21.65 21.62 21.05 22.33 20.69 23.17C20.32 24 20.22 24.93 20.38 25.82C20.55 26.72 20.98 27.55 21.61 28.2C22.25 28.85 23.07 29.3 23.96 29.48C24.85 29.67 25.78 29.58 26.62 29.24C27.46 28.89 28.19 28.31 28.69 27.55C29.2 26.8 29.47 25.91 29.47 25C29.47 23.8 29.01 22.65 28.17 21.79C27.33 20.93 26.19 20.44 25 20.41Z" fill="#7572D5" fill-opacity="1.000000" fill-rule="nonzero"/>
		</g>
	</g>

	<g id="instagram">
		<desc>
			Created with Pixso.
		</desc>
		<defs>
			<clipPath id="clip20_2002">
				<rect id="instagram-svg" width="21.000000" height="21.000000" transform="translate(7.000000 7.000000)" fill="white" fill-opacity="0"/>
			</clipPath>
		</defs>
		<rect id="Rectangle 7" rx="17.500000" width="35.000000" height="35.000000" fill="#FFFFFF" fill-opacity="0.100000"/>
		<rect id="instagram-svg" width="21.000000" height="21.000000" transform="translate(7.000000 7.000000)" fill="#FFFFFF" fill-opacity="0"/>
		<g clip-path="url(#clip20_2002)">
			<path id="Vector" d="M22.65 9.1L12.34 9.1C10.55 9.1 9.09 10.55 9.09 12.34L9.09 15.77L9.09 22.65C9.09 24.44 10.55 25.9 12.34 25.9L22.65 25.9C24.44 25.9 25.9 24.44 25.9 22.65L25.9 15.77L25.9 12.34C25.89 10.55 24.43 9.1 22.65 9.1ZM23.58 11.03L23.95 11.03L23.95 11.4L23.95 13.88L21.11 13.88L21.1 11.04L23.58 11.03ZM15.09 15.77C15.63 15.03 16.5 14.53 17.49 14.53C18.47 14.53 19.35 15.02 19.88 15.77C20.24 16.25 20.44 16.85 20.44 17.49C20.44 19.12 19.12 20.45 17.48 20.45C15.85 20.45 14.54 19.12 14.54 17.49C14.54 16.85 14.75 16.25 15.09 15.77ZM24.25 22.64C24.25 23.53 23.53 24.25 22.65 24.25L12.34 24.25C11.46 24.25 10.74 23.53 10.74 22.64L10.74 15.77L13.24 15.77C13.03 16.3 12.9 16.88 12.9 17.49C12.9 20.02 14.96 22.08 17.5 22.08C20.03 22.08 22.09 20.02 22.09 17.49C22.09 16.88 21.96 16.3 21.75 15.77L24.25 15.77L24.25 22.64Z" fill="#7572D5" fill-opacity="1.000000" fill-rule="nonzero"/>
		</g>
	</g>

	<g id="linledIn">
		<desc>
		Created with Pixso.
	</desc>
		<defs>
			<clipPath id="clip20_1987">
				<rect id="linkedin-svg" width="20.999998" height="20.999998" transform="translate(7.000000 7.000488)" fill="white" fill-opacity="0"/>
			</clipPath>
		</defs>
		<rect id="Rectangle 7" rx="17.500000" width="35.000000" height="35.000000" fill="#FFFFFF" fill-opacity="0.100000"/>
		<rect id="linkedin-svg" width="20.999998" height="20.999998" transform="translate(7.000000 7.000488)" fill="#FFFFFF" fill-opacity="0"/>
		<g clip-path="url(#clip20_1987)">
			<path id="Vector" d="M9.53 14.88L12.8 14.88L12.8 25.36L9.53 25.36L9.53 14.88Z" fill="#7572D5" fill-opacity="1.000000" fill-rule="evenodd"/>
			<path id="Vector" d="M11.1 9.94C9.89 9.94 9.09 10.72 9.09 11.75C9.09 12.77 9.86 13.57 11.05 13.57L11.08 13.57C12.31 13.57 13.08 12.76 13.07 11.75C13.04 10.72 12.3 9.94 11.1 9.94Z" fill="#7572D5" fill-opacity="1.000000" fill-rule="nonzero"/>
			<path id="Vector" d="M21.74 14.78C19.87 14.78 18.69 15.81 18.48 16.53L18.48 14.88L14.8 14.88C14.84 15.75 14.8 25.36 14.8 25.36L18.48 25.36L18.48 19.7C18.48 19.37 18.46 19.06 18.55 18.84C18.8 18.21 19.35 17.55 20.33 17.55C21.6 17.55 22.18 18.52 22.18 19.94L22.18 25.36L25.9 25.36L25.9 19.53C25.9 16.29 24.07 14.78 21.74 14.78Z" fill="#7572D5" fill-opacity="1.000000" fill-rule="nonzero"/>
		</g>
	</g>

	<g id="telegram">
		<desc>
			Created with Pixso.
		</desc>
		<defs>
			<clipPath id="clip20_1998">
				<rect id="telegram-svg" width="21.000000" height="21.000000" transform="translate(7.000000 7.000000)" fill="white" fill-opacity="0"/>
			</clipPath>
		</defs>
		<rect id="Rectangle 7" rx="17.500000" width="35.000000" height="35.000000" fill="#7572D5" fill-opacity="1.000000"/>
		<rect id="telegram-svg" width="21.000000" height="21.000000" transform="translate(7.000000 7.000000)" fill="#FFFFFF" fill-opacity="0"/>
		<g clip-path="url(#clip20_1998)">
			<path id="Vector" d="M25.9 11.76L23.37 23.72C23.17 24.56 22.68 24.77 21.97 24.37L18.1 21.53L16.24 23.32C16.03 23.53 15.86 23.7 15.46 23.7L15.74 19.76L22.9 13.29C23.21 13.02 22.83 12.86 22.42 13.14L13.57 18.71L9.76 17.52C8.93 17.26 8.91 16.69 9.93 16.29L24.83 10.55C25.52 10.29 26.13 10.71 25.9 11.76Z" fill="#1F1F20" fill-opacity="1.000000" fill-rule="nonzero"/>
		</g>
	</g>
	<g id="vk">
		<desc>
			Created with Pixso.
		</desc>
		<defs>
			<clipPath id="clip20_1994">
				<rect id="vk-logo-svg" width="20.999998" height="20.999998" transform="translate(7.000061 7.000488)" fill="white" fill-opacity="0"/>
			</clipPath>
		</defs>
		<rect id="Rectangle 7" rx="17.500000" width="35.000000" height="35.000000" fill="#FFFFFF" fill-opacity="0.100000"/>
		<rect id="vk-logo-svg" width="20.999998" height="20.999998" transform="translate(7.000061 7.000488)" fill="#FFFFFF" fill-opacity="0"/>
		<g clip-path="url(#clip20_1994)">
			<path id="Vector" d="M25.16 20.99C24.8 20.53 24.38 20.13 23.98 19.73C23.84 19.59 23.69 19.45 23.55 19.3C23.14 18.89 23.12 18.73 23.45 18.26C23.67 17.94 23.91 17.61 24.14 17.3C24.35 17.01 24.56 16.72 24.77 16.42L24.81 16.36C25.21 15.8 25.61 15.21 25.83 14.51C25.89 14.32 25.95 14.04 25.81 13.82C25.68 13.59 25.41 13.52 25.23 13.48C25.14 13.47 25.05 13.47 24.96 13.47L22.38 13.46L22.35 13.46C21.96 13.46 21.7 13.65 21.55 14.05C21.41 14.42 21.25 14.82 21.07 15.2C20.71 15.96 20.25 16.83 19.59 17.56L19.56 17.59C19.48 17.67 19.4 17.77 19.33 17.77C19.32 17.77 19.31 17.77 19.3 17.77C19.16 17.71 19.07 17.37 19.07 17.21C19.07 17.21 19.07 17.2 19.07 17.2L19.07 14.11C19.07 14.1 19.07 14.08 19.07 14.07C19 13.57 18.86 13.26 18.31 13.15C18.29 13.14 18.28 13.14 18.26 13.14L15.58 13.14C15.14 13.14 14.9 13.33 14.67 13.6C14.61 13.68 14.48 13.83 14.54 14.02C14.61 14.2 14.82 14.24 14.88 14.26C15.22 14.32 15.41 14.54 15.46 14.91C15.56 15.56 15.57 16.25 15.5 17.08C15.48 17.31 15.44 17.49 15.38 17.65C15.37 17.68 15.31 17.8 15.26 17.8C15.24 17.8 15.2 17.79 15.11 17.73C14.9 17.58 14.75 17.37 14.57 17.11C13.96 16.22 13.46 15.25 13.02 14.12C12.85 13.71 12.55 13.48 12.16 13.47C11.73 13.47 11.34 13.46 10.97 13.46C10.56 13.46 10.19 13.47 9.82 13.48C9.51 13.48 9.29 13.58 9.18 13.77C9.06 13.95 9.07 14.2 9.2 14.5C10.23 16.88 11.17 18.61 12.24 20.11C12.99 21.16 13.74 21.89 14.6 22.4C15.51 22.94 16.53 23.2 17.72 23.2C17.85 23.2 17.99 23.2 18.13 23.19C18.82 23.16 19.08 22.9 19.11 22.2C19.13 21.85 19.16 21.47 19.33 21.16C19.44 20.96 19.54 20.96 19.57 20.96C19.63 20.96 19.71 20.99 19.8 21.04C19.95 21.14 20.08 21.28 20.18 21.4C20.28 21.51 20.38 21.63 20.48 21.74C20.69 21.99 20.91 22.24 21.14 22.48C21.64 23.01 22.19 23.24 22.83 23.19L25.2 23.19C25.2 23.19 25.21 23.19 25.21 23.19C25.45 23.18 25.65 23.04 25.77 22.82C25.92 22.55 25.92 22.2 25.77 21.89C25.59 21.54 25.36 21.24 25.16 20.99Z" fill="#7572D5" fill-opacity="1.000000" fill-rule="nonzero"/>
		</g>
	</g>

	<g id="styledComponents">
		<desc>
			Created with Pixso.
		</desc>
		<defs>
			<clipPath id="clip20_1874">
				<rect width="50.000000" height="50.000000" fill="white" fill-opacity="0"/>
			</clipPath>
		</defs>
		<rect width="50.000000" height="50.000000" fill="#FFFFFF" fill-opacity="0"/>
		<g clip-path="url(#clip20_1874)">
			<path d="M37.25 6.25L36.98 7.64C36.57 10.3 36.72 11.06 37.86 12.04L38.97 12.95L37.82 18.03C37.14 21.05 36.3 23.59 35.77 24.43C35.31 25.15 34.77 26.21 34.66 26.77C34.47 27.45 33.82 28.14 32.83 28.74C31.95 29.24 30.23 30.56 29.02 31.62C28.04 32.49 27.37 33.03 27.01 33.26L25.82 34.19C25.44 34.8 25.22 35.29 25.14 35.66C25.05 36.05 25.1 36.3 25.22 36.49C25.34 36.66 25.55 36.79 25.83 36.87C26.16 36.95 26.5 36.97 26.85 36.95C27.62 36.9 28.38 36.76 29.12 36.55C29.38 36.48 29.57 36.42 29.75 36.36C30.01 36.03 30.63 35.42 31.72 34.35C34.62 31.51 35.73 29.96 34.58 30.38C34.16 30.53 34.35 30.15 35.08 29.39C36.61 27.91 37.48 25.68 39.31 18.67C40.76 13.14 40.76 13.06 41.83 13.06C42.33 13.06 43.75 13.15 43.75 13.15L43.75 6.25L40.49 6.25L37.25 6.25ZM24.42 18.08C23.36 18.07 21.1 19.66 14.33 25.16C14.03 25.85 14.01 26.32 14.14 26.63C14.23 26.84 14.39 26.99 14.61 27.1C14.82 27.2 15.1 27.27 15.41 27.29C16.03 27.35 16.76 27.25 17.35 27.14L17.74 27.05C17.88 26.87 18.06 26.72 18.26 26.62C18.68 26.39 20.43 24.81 22.19 23.1C25.28 19.99 26 18.59 24.74 18.14C24.64 18.1 24.53 18.08 24.42 18.08ZM32.33 20.23C31.4 20.26 29.74 21.33 26.88 23.59C25.44 24.75 24.54 25.37 24.05 25.5L22.16 26.98C21.45 28.27 21.35 29.07 21.53 29.51C21.58 29.62 21.65 29.72 21.73 29.8C21.82 29.88 21.92 29.95 22.03 29.99C22.31 30.1 22.6 30.15 22.9 30.15C23.6 30.14 24.31 30.04 24.99 29.85C25.34 29.75 25.69 29.64 26.03 29.52L26.14 29.47L26.33 29.37C26.69 28.91 27.52 28.04 28.56 27.04C31.84 23.9 33.51 21.66 33.17 20.83C33.02 20.42 32.75 20.22 32.33 20.23ZM23.59 24.1C23.33 24.13 22.73 24.59 21.65 25.52C20.1 26.89 18.4 27.68 17.81 27.33C17.67 27.36 17.54 27.39 17.4 27.41C16.8 27.53 16.06 27.63 15.39 27.58C15.07 27.56 14.77 27.48 14.48 27.35C14.21 27.23 13.99 27.01 13.87 26.74C13.74 26.42 13.74 26.02 13.89 25.51L11.55 27.42L6.25 31.77L6.25 38.84L23.62 25.25C23.62 25.1 23.64 24.95 23.68 24.81C23.81 24.33 23.8 24.08 23.59 24.1L23.59 24.1ZM31.07 26.39C30.81 26.39 30.37 26.76 29.66 27.5C28.71 28.51 27.21 29.49 26.41 29.69L26.29 29.76C26.16 29.81 26.02 29.86 25.89 29.91C25.67 29.98 25.39 30.06 25.07 30.15C24.42 30.33 23.61 30.49 22.89 30.47C22.55 30.47 22.22 30.4 21.9 30.27C21.6 30.15 21.37 29.92 21.24 29.63C21.03 29.13 21.11 28.44 21.57 27.44L6.25 39.43L6.25 43.75L12.98 43.75L27.26 32.61C27.63 32.2 28.19 31.64 28.94 30.94C30.96 29.08 31.42 28.44 31.42 27.49C31.42 26.76 31.33 26.38 31.07 26.38L31.07 26.39ZM34.47 33.37L33.25 34.58C32.56 35.22 31.34 36.02 30.5 36.36L30.34 36.43L30.33 36.45L30.29 36.48C30.26 36.51 30.24 36.51 30.22 36.52C29.89 36.65 29.55 36.76 29.2 36.85C28.44 37.08 27.65 37.21 26.86 37.27C26.48 37.29 26.11 37.26 25.74 37.17C25.43 37.1 25.15 36.92 24.96 36.65C24.78 36.39 24.73 36.03 24.83 35.6C24.91 35.29 25.02 34.99 25.17 34.7L13.65 43.75L28.98 43.75L30.81 41.66C33.32 38.75 34.47 36.66 34.47 34.88L34.47 33.37Z" fill="#7572D5" fill-opacity="1.000000" fill-rule="nonzero"/>
		</g>
	</g>

	<g id="typescript">
		<desc>
			Created with Pixso.
		</desc>
		<defs>
			<clipPath id="clip20_1867">
				<rect width="50.000000" height="50.000000" fill="white" fill-opacity="0"/>
			</clipPath>
		</defs>
		<rect width="50.000000" height="50.000000" fill="#FFFFFF" fill-opacity="0"/>
		<g clip-path="url(#clip20_1867)">
			<path d="M5 25L5 45L45 45L45 5L5 5L5 25ZM37.23 23.4C38.25 23.66 39.02 24.11 39.73 24.84C40.1 25.24 40.65 25.95 40.69 26.13C40.7 26.18 38.96 27.34 37.91 28C37.87 28.02 37.72 27.86 37.55 27.61C37.03 26.86 36.49 26.53 35.67 26.48C34.46 26.39 33.68 27.03 33.68 28.09C33.67 28.35 33.73 28.61 33.85 28.84C34.12 29.39 34.62 29.72 36.17 30.39C39.03 31.63 40.26 32.44 41.02 33.59C41.87 34.88 42.06 36.94 41.48 38.47C40.85 40.13 39.28 41.26 37.06 41.64C36.37 41.76 34.75 41.74 34.01 41.61C32.41 41.32 30.88 40.53 29.94 39.48C29.57 39.08 28.86 38.02 28.9 37.94C28.92 37.91 29.08 37.81 29.27 37.71C29.45 37.61 30.12 37.22 30.75 36.85L31.9 36.18L32.15 36.54C32.48 37.05 33.22 37.76 33.66 37.99C34.94 38.66 36.69 38.57 37.55 37.8C37.73 37.65 37.86 37.46 37.95 37.26C38.05 37.05 38.09 36.82 38.08 36.59C38.08 36.13 38.02 35.93 37.78 35.58C37.47 35.14 36.83 34.76 35.03 33.98C32.96 33.09 32.08 32.54 31.26 31.66C30.75 31.08 30.38 30.4 30.16 29.66C30.01 29.1 29.97 27.68 30.09 27.11C30.52 25.12 32.02 23.73 34.2 23.31C34.9 23.18 36.54 23.23 37.23 23.4ZM27.84 25.07L27.85 26.71L22.65 26.71L22.65 41.5L18.96 41.5L18.96 26.71L13.76 26.71L13.76 25.1C13.76 24.21 13.78 23.47 13.8 23.45C13.82 23.43 16.99 23.41 20.83 23.42L27.82 23.44L27.84 25.07Z" fill="#7572D5" fill-opacity="1.000000" fill-rule="nonzero"/>
		</g>
	</g>

</svg>
