<svg width="50.000000" height="50.000000" viewBox="0 0 50 50" fill="none" xmlns="http://www.w3.org/2000/svg" xmlns:xlink="http://www.w3.org/1999/xlink">
	<desc>
			Created with Pixso.
	</desc>
	<defs>
		<clipPath id="clip20_1874">
			<rect width="50.000000" height="50.000000" fill="white" fill-opacity="0"/>
		</clipPath>
	</defs>
	<rect width="50.000000" height="50.000000" fill="#FFFFFF" fill-opacity="0"/>
	<g clip-path="url(#clip20_1874)">
		<path d="M37.25 6.25L36.98 7.64C36.57 10.3 36.72 11.06 37.86 12.04L38.97 12.95L37.82 18.03C37.14 21.05 36.3 23.59 35.77 24.43C35.31 25.15 34.77 26.21 34.66 26.77C34.47 27.45 33.82 28.14 32.83 28.74C31.95 29.24 30.23 30.56 29.02 31.62C28.04 32.49 27.37 33.03 27.01 33.26L25.82 34.19C25.44 34.8 25.22 35.29 25.14 35.66C25.05 36.05 25.1 36.3 25.22 36.49C25.34 36.66 25.55 36.79 25.83 36.87C26.16 36.95 26.5 36.97 26.85 36.95C27.62 36.9 28.38 36.76 29.12 36.55C29.38 36.48 29.57 36.42 29.75 36.36C30.01 36.03 30.63 35.42 31.72 34.35C34.62 31.51 35.73 29.96 34.58 30.38C34.16 30.53 34.35 30.15 35.08 29.39C36.61 27.91 37.48 25.68 39.31 18.67C40.76 13.14 40.76 13.06 41.83 13.06C42.33 13.06 43.75 13.15 43.75 13.15L43.75 6.25L40.49 6.25L37.25 6.25ZM24.42 18.08C23.36 18.07 21.1 19.66 14.33 25.16C14.03 25.85 14.01 26.32 14.14 26.63C14.23 26.84 14.39 26.99 14.61 27.1C14.82 27.2 15.1 27.27 15.41 27.29C16.03 27.35 16.76 27.25 17.35 27.14L17.74 27.05C17.88 26.87 18.06 26.72 18.26 26.62C18.68 26.39 20.43 24.81 22.19 23.1C25.28 19.99 26 18.59 24.74 18.14C24.64 18.1 24.53 18.08 24.42 18.08ZM32.33 20.23C31.4 20.26 29.74 21.33 26.88 23.59C25.44 24.75 24.54 25.37 24.05 25.5L22.16 26.98C21.45 28.27 21.35 29.07 21.53 29.51C21.58 29.62 21.65 29.72 21.73 29.8C21.82 29.88 21.92 29.95 22.03 29.99C22.31 30.1 22.6 30.15 22.9 30.15C23.6 30.14 24.31 30.04 24.99 29.85C25.34 29.75 25.69 29.64 26.03 29.52L26.14 29.47L26.33 29.37C26.69 28.91 27.52 28.04 28.56 27.04C31.84 23.9 33.51 21.66 33.17 20.83C33.02 20.42 32.75 20.22 32.33 20.23ZM23.59 24.1C23.33 24.13 22.73 24.59 21.65 25.52C20.1 26.89 18.4 27.68 17.81 27.33C17.67 27.36 17.54 27.39 17.4 27.41C16.8 27.53 16.06 27.63 15.39 27.58C15.07 27.56 14.77 27.48 14.48 27.35C14.21 27.23 13.99 27.01 13.87 26.74C13.74 26.42 13.74 26.02 13.89 25.51L11.55 27.42L6.25 31.77L6.25 38.84L23.62 25.25C23.62 25.1 23.64 24.95 23.68 24.81C23.81 24.33 23.8 24.08 23.59 24.1L23.59 24.1ZM31.07 26.39C30.81 26.39 30.37 26.76 29.66 27.5C28.71 28.51 27.21 29.49 26.41 29.69L26.29 29.76C26.16 29.81 26.02 29.86 25.89 29.91C25.67 29.98 25.39 30.06 25.07 30.15C24.42 30.33 23.61 30.49 22.89 30.47C22.55 30.47 22.22 30.4 21.9 30.27C21.6 30.15 21.37 29.92 21.24 29.63C21.03 29.13 21.11 28.44 21.57 27.44L6.25 39.43L6.25 43.75L12.98 43.75L27.26 32.61C27.63 32.2 28.19 31.64 28.94 30.94C30.96 29.08 31.42 28.44 31.42 27.49C31.42 26.76 31.33 26.38 31.07 26.38L31.07 26.39ZM34.47 33.37L33.25 34.58C32.56 35.22 31.34 36.02 30.5 36.36L30.34 36.43L30.33 36.45L30.29 36.48C30.26 36.51 30.24 36.51 30.22 36.52C29.89 36.65 29.55 36.76 29.2 36.85C28.44 37.08 27.65 37.21 26.86 37.27C26.48 37.29 26.11 37.26 25.74 37.17C25.43 37.1 25.15 36.92 24.96 36.65C24.78 36.39 24.73 36.03 24.83 35.6C24.91 35.29 25.02 34.99 25.17 34.7L13.65 43.75L28.98 43.75L30.81 41.66C33.32 38.75 34.47 36.66 34.47 34.88L34.47 33.37Z" fill="#7572D5" fill-opacity="1.000000" fill-rule="nonzero"/>
	</g>
</svg>
