<svg width="50.000000" height="50.000000" viewBox="0 0 50 50" fill="none" xmlns="http://www.w3.org/2000/svg" xmlns:xlink="http://www.w3.org/1999/xlink">
	<desc>
			Created with Pixso.
	</desc>
	<defs>
		<clipPath id="clip20_1867">
			<rect width="50.000000" height="50.000000" fill="white" fill-opacity="0"/>
		</clipPath>
	</defs>
	<rect width="50.000000" height="50.000000" fill="#FFFFFF" fill-opacity="0"/>
	<g clip-path="url(#clip20_1867)">
		<path d="M5 25L5 45L45 45L45 5L5 5L5 25ZM37.23 23.4C38.25 23.66 39.02 24.11 39.73 24.84C40.1 25.24 40.65 25.95 40.69 26.13C40.7 26.18 38.96 27.34 37.91 28C37.87 28.02 37.72 27.86 37.55 27.61C37.03 26.86 36.49 26.53 35.67 26.48C34.46 26.39 33.68 27.03 33.68 28.09C33.67 28.35 33.73 28.61 33.85 28.84C34.12 29.39 34.62 29.72 36.17 30.39C39.03 31.63 40.26 32.44 41.02 33.59C41.87 34.88 42.06 36.94 41.48 38.47C40.85 40.13 39.28 41.26 37.06 41.64C36.37 41.76 34.75 41.74 34.01 41.61C32.41 41.32 30.88 40.53 29.94 39.48C29.57 39.08 28.86 38.02 28.9 37.94C28.92 37.91 29.08 37.81 29.27 37.71C29.45 37.61 30.12 37.22 30.75 36.85L31.9 36.18L32.15 36.54C32.48 37.05 33.22 37.76 33.66 37.99C34.94 38.66 36.69 38.57 37.55 37.8C37.73 37.65 37.86 37.46 37.95 37.26C38.05 37.05 38.09 36.82 38.08 36.59C38.08 36.13 38.02 35.93 37.78 35.58C37.47 35.14 36.83 34.76 35.03 33.98C32.96 33.09 32.08 32.54 31.26 31.66C30.75 31.08 30.38 30.4 30.16 29.66C30.01 29.1 29.97 27.68 30.09 27.11C30.52 25.12 32.02 23.73 34.2 23.31C34.9 23.18 36.54 23.23 37.23 23.4ZM27.84 25.07L27.85 26.71L22.65 26.71L22.65 41.5L18.96 41.5L18.96 26.71L13.76 26.71L13.76 25.1C13.76 24.21 13.78 23.47 13.8 23.45C13.82 23.43 16.99 23.41 20.83 23.42L27.82 23.44L27.84 25.07Z" fill="#7572D5" fill-opacity="1.000000" fill-rule="nonzero"/>
	</g>
</svg>
